PathFileType  4	(X/Y/Z) C:\Users\antoi\Documents\MyRepositories\mobilecap\ResultsAnalysis
DataRate	CameraRate	NumFrames	NumMarkers	Units	OrigDataRate	OrigDataStartFrame	OrigNumFrames
100.0	100.0	4	51	mm	100.0	51	135
Frame#	Time	r_knee			r_shank_antsup			r_ankle			r_calc			r_5meta			r_toe			L_knee			L_shank_antsup			L_ankle			L_calc			L_5meta			L_toe			r_sh2			r_sh3			r_sh4			L_sh2			L_sh3			r_thigh1			r_thigh2			r_thigh3			r_thigh4			r_thigh5			L_thigh1			L_thigh2			L_thigh3			L_thigh4			r.ASIS			r.PSIS			L.ASIS			L.PSIS			C7			R_Shoulder			L_Shoulder			R_Sternum			L_Sternum			R_humerus			R_elbow_med			R_elbow_lat			R_forearm			R_wrist_radius			R_wrist_ulna			L_humerus			L_elbow_med			L_elbow_lat			L_forearm			L_wrist_radius			L_wrist_ulna			R_HJC			L_HJC			R_HJC_reg			L_HJC_reg			
		X1	Y1	Z1	X2	Y2	Z2	X3	Y3	Z3	X4	Y4	Z4	X5	Y5	Z5	X6	Y6	Z6	X7	Y7	Z7	X8	Y8	Z8	X9	Y9	Z9	X10	Y10	Z10	X11	Y11	Z11	X12	Y12	Z12	X13	Y13	Z13	X14	Y14	Z14	X15	Y15	Z15	X16	Y16	Z16	X17	Y17	Z17	X18	Y18	Z18	X19	Y19	Z19	X20	Y20	Z20	X21	Y21	Z21	X22	Y22	Z22	X23	Y23	Z23	X24	Y24	Z24	X25	Y25	Z25	X26	Y26	Z26	X27	Y27	Z27	X28	Y28	Z28	X29	Y29	Z29	X30	Y30	Z30	X31	Y31	Z31	X32	Y32	Z32	X33	Y33	Z33	X34	Y34	Z34	X35	Y35	Z35	X36	Y36	Z36	X37	Y37	Z37	X38	Y38	Z38	X39	Y39	Z39	X40	Y40	Z40	X41	Y41	Z41	X42	Y42	Z42	X43	Y43	Z43	X44	Y44	Z44	X45	Y45	Z45	X46	Y46	Z46	X47	Y47	Z47	X48	Y48	Z48	X49	Y49	Z49	X50	Y50	Z50	X51	Y51	Z51	

51	0.50000000	428.14178	498.19683	-19.58875	444.42162	420.48288	-34.25736	287.87120	110.10595	-44.32460	214.45206	83.42636	-80.62719	383.19439	41.13773	-13.55045	435.16881	65.25810	-69.49805	666.44706	504.20749	-337.28156	733.57078	436.84058	-349.39070	801.15066	124.67200	-355.93476	757.45020	57.80407	-311.08097	923.62681	108.88875	-394.78962	950.78508	153.17563	-343.21241	393.16485	318.08455	-10.56087	371.89428	453.12750	-6.23164	325.14944	350.36821	-6.63065	647.24025	413.14606	-350.88654	691.07919	300.45839	-368.93479	570.23475	793.74867	2.55580	540.54565	685.38247	-4.48447	482.18193	676.03365	23.68919	461.65368	818.23813	32.22274	432.50457	704.52686	14.21424	588.30893	758.80620	-369.72479	648.59432	635.63716	-353.98101	492.84347	715.57409	-320.28056	554.85263	589.51169	-318.70898	609.90110	963.69527	-43.92205	416.24041	1005.13614	-119.03087	602.12469	940.00558	-294.82183	404.05639	999.47739	-218.84317	435.57698	1417.84463	-187.02294	566.93104	1384.35666	-33.91129	466.57657	1366.68844	-374.27523	575.02156	1373.94109	-193.16959	568.72885	1372.39029	-236.23879	605.83019	1264.62605	36.55124	574.26362	1042.19992	46.78278	607.16471	1074.34222	104.18748	728.25237	1000.23322	82.41025	823.95333	906.66051	63.76604	812.57282	890.78365	94.20148	448.28255	1253.40766	-435.17344	365.24903	1033.57832	-372.86394	378.58340	1051.85442	-448.31821	442.54903	950.39119	-448.57951	472.53180	794.55958	-448.75561	447.23858	793.79488	-472.16414	528.27157	885.83207	-60.01022	520.09131	870.83469	-265.77273	539.93063	887.70183	-66.34799	519.79861	878.35110	-231.27017	
52	0.51000000	437.25922	497.01302	-19.84972	452.27880	418.73236	-34.58264	289.45084	111.68806	-43.88925	215.53260	85.92261	-80.15514	383.58149	41.08336	-13.45040	435.86601	64.82599	-69.31647	679.86188	503.70055	-339.54521	745.26981	435.14167	-351.85236	808.62674	122.49375	-359.71256	764.46070	56.08606	-314.96915	931.04604	105.62062	-398.45515	958.55491	149.82614	-346.89380	398.94047	317.33021	-10.85861	380.62449	452.80353	-6.23196	331.82682	351.05634	-6.35833	658.76436	412.64582	-353.68824	701.06706	299.65440	-372.23686	581.21371	791.87202	1.83633	550.94025	683.67140	-4.95083	492.46893	674.75459	23.28101	472.77737	817.07846	31.57918	442.91635	703.43689	13.70048	602.04239	758.96448	-370.43785	662.50264	635.95891	-355.05135	505.70497	714.65000	-323.25694	568.42193	588.99589	-322.07730	621.86334	961.96892	-44.69721	428.14935	1003.33053	-120.40976	614.08945	937.96759	-295.63337	415.82805	997.82393	-220.21299	446.50694	1416.05200	-190.40775	578.28964	1384.37046	-37.28778	477.45838	1364.11775	-377.24896	586.27635	1372.75081	-196.50079	579.92308	1370.85484	-239.50035	617.52479	1265.37384	34.07079	586.27791	1042.97901	46.52563	619.25547	1075.77540	103.55611	740.48930	1001.78064	82.02687	836.47830	908.34204	63.93976	825.24334	892.74782	94.57662	459.98706	1251.00688	-438.34401	374.77003	1031.71735	-377.56244	390.12495	1049.77122	-452.61729	453.43280	947.74011	-450.56063	482.14749	791.64778	-449.23321	457.53643	791.11012	-473.61962	539.96522	884.14873	-60.95137	532.04622	868.89771	-266.70798	552.03485	885.61267	-67.12487	531.67046	876.51165	-232.07375	
53	0.52000000	446.94892	495.70190	-20.30110	460.64489	416.90914	-35.03225	291.24201	113.56086	-43.45319	216.85997	88.88659	-79.60040	384.02477	41.07484	-13.34863	436.67776	64.35319	-69.11652	693.76161	503.36299	-341.68843	756.87897	433.13576	-354.15936	813.68840	119.68452	-362.85963	768.67273	54.58176	-317.93567	935.70293	100.72496	-401.89853	964.11159	144.68490	-350.56451	405.02425	316.60274	-11.31028	389.90977	452.44725	-6.42591	338.95845	351.83214	-6.21955	670.03551	412.46742	-356.03454	709.88875	298.87120	-374.95037	592.36711	790.06056	0.91244	561.59789	681.99932	-5.57784	503.04182	673.46513	22.68401	484.09854	815.86773	30.58182	453.60869	702.28330	12.96086	616.24934	759.39387	-371.20704	677.05862	636.64198	-356.22766	519.03073	713.91326	-326.46867	582.69297	588.68431	-325.49088	633.94153	960.17624	-45.64338	440.20651	1001.60894	-121.82680	626.10243	936.22775	-296.69525	427.70237	996.35051	-221.60526	457.54542	1414.41590	-194.01855	589.63109	1384.51580	-40.80194	488.65463	1361.62847	-380.44412	597.56885	1371.61085	-199.94725	591.23593	1369.41219	-242.89318	629.02731	1266.23194	31.52689	598.01739	1043.90406	46.11959	630.99377	1077.32282	102.82465	752.21253	1003.29008	81.71472	848.47559	909.89520	64.29058	837.38929	894.62182	95.11073	472.20475	1248.61513	-441.66456	384.53717	1029.99913	-382.66053	402.21927	1047.71340	-457.20249	464.82457	945.22507	-452.57881	492.40185	788.91073	-449.63104	468.57006	788.50150	-475.03805	551.79771	882.43154	-62.15300	544.05149	867.22213	-267.92020	564.24337	883.56290	-68.12421	543.56412	874.86805	-233.12997	
54	0.53000000	457.28870	494.27859	-20.96493	469.57041	415.04866	-35.60354	293.27746	115.76388	-43.04612	218.48076	92.41008	-79.00113	384.52827	41.12886	-13.24682	437.61425	63.81649	-68.90358	707.65829	503.05898	-343.71693	768.27428	430.94454	-356.29131	817.20885	116.54460	-365.32600	771.10991	53.54522	-319.95440	938.43704	94.84488	-405.07627	968.22554	138.37478	-354.15396	411.49716	315.97067	-11.87085	399.79158	452.09964	-6.84147	346.58612	352.73884	-6.25443	680.99225	412.43051	-357.96482	717.88695	298.05164	-377.08859	603.74612	788.33892	-0.23522	572.57066	680.39211	-6.40468	513.95715	672.17371	21.84671	495.65498	814.61713	29.21255	464.66175	701.05969	11.94259	630.60047	759.89052	-372.13967	691.79995	637.40918	-357.51456	532.61330	713.39873	-329.67158	597.16910	588.50212	-328.69887	646.13696	958.33698	-46.77183	452.43434	1000.00453	-123.26486	638.19625	934.85014	-298.01212	439.74573	995.07233	-223.01130	468.69883	1412.95624	-197.84940	600.95221	1384.80438	-44.44416	500.15111	1359.23598	-383.84804	608.88832	1370.52952	-203.50189	602.67937	1368.07780	-246.41190	640.33317	1267.20515	28.92560	609.48962	1044.96698	45.53752	642.37036	1078.97639	101.98270	763.51545	1004.79590	81.45544	859.96037	911.33182	64.82667	848.99460	896.40274	95.80030	484.86067	1246.24541	-445.11162	394.60876	1028.40263	-388.06581	414.81795	1045.67621	-461.97381	476.66844	942.85238	-454.67474	503.23392	786.34722	-450.03324	480.24820	785.98613	-476.48133	563.80091	880.69776	-63.62668	556.14896	865.85743	-269.42297	576.53007	881.61927	-69.37652	555.52794	873.45822	-234.46917	
